<svg xmlns="http://www.w3.org/2000/svg" viewBox="0 0 765.75 197.79"><defs><style>.cls-1,.cls-2{fill:#009640;}.cls-1,.cls-4{fill-rule:evenodd;}.cls-3,.cls-4{fill:#1d1d1b;}</style></defs><g id="Layer_2" data-name="Layer 2"><g id="Layer_1-2" data-name="Layer 1"><path class="cls-1" d="M29.4,28.53l37.47,1.23,15,36.76-15-.1-.09,15L30.17,66,29.4,28.53ZM0,98.28,27.37,72.66,64,88.05,53.25,98.61l10.56,10.7L27,124.24l-27-26Zm28.53,70.11,1.23-37.47,36.75-15-.1,15,15,.1L66,167.63l-37.48.76Zm69.75,29.4L72.66,170.43l15.39-36.58,10.56,10.69L109.31,134l14.93,36.77-26,27Zm70.11-28.53L130.92,168l-15-36.75,15,.1.09-15,36.57,15.45.76,37.47Zm29.4-69.75-27.36,25.62-36.58-15.39,10.69-10.55L134,88.49l36.78-14.94,27,26ZM169.26,29.4,168,66.87l-36.75,15,.09-15-15-.1,15.44-36.56,37.48-.77ZM99.51,0l25.62,27.37L109.74,64,99.18,53.26,88.48,63.82,73.55,27l26-27Z"/><path class="cls-2" d="M112.81,76l-.1,15.21h-1.19a19.14,19.14,0,0,0-2-7,10.76,10.76,0,0,0-4.28-4.15,11.78,11.78,0,0,0-5.76-1.56,7.9,7.9,0,0,0-5.59,2,6.26,6.26,0,0,0-2.23,4.67A5.53,5.53,0,0,0,93,88.89q2,2.46,9.53,6.55a65.46,65.46,0,0,1,8.38,5.13,12.37,12.37,0,0,1,3.44,4.19,11,11,0,0,1,1.19,5,11.39,11.39,0,0,1-3.93,8.59,14.08,14.08,0,0,1-10,3.56,20.52,20.52,0,0,1-3.61-.33,34.11,34.11,0,0,1-4.15-1.2,18.17,18.17,0,0,0-4-1,1.73,1.73,0,0,0-1.29.48,3.93,3.93,0,0,0-.71,2h-1.2l.1-15.07h1.19a21.54,21.54,0,0,0,2.24,7.1,10.94,10.94,0,0,0,4.34,3.94,13.62,13.62,0,0,0,6.42,1.59,9.19,9.19,0,0,0,6.42-2.1,6.66,6.66,0,0,0,2.38-5,7.07,7.07,0,0,0-.87-3.29,9.74,9.74,0,0,0-2.76-3.09,75.52,75.52,0,0,0-6.88-4.18,67.88,67.88,0,0,1-8-5.09,13.75,13.75,0,0,1-3.59-4.17,10.39,10.39,0,0,1-1.2-5,10.8,10.8,0,0,1,3.68-8.13,13,13,0,0,1,9.26-3.36,18.29,18.29,0,0,1,7.42,1.76,7.84,7.84,0,0,0,2.55.83,2,2,0,0,0,1.39-.49,4.15,4.15,0,0,0,.88-2Z"/><path class="cls-3" d="M266,160.28l8.58,2.78c-1.35,4.79-3.56,8.33-6.65,10.65s-7,3.44-11.7,3.41a18.91,18.91,0,0,1-14.35-6.06q-5.59-6-5.53-16.39.06-11,5.77-17t14.94-6q8.06.06,13.07,4.85a17.33,17.33,0,0,1,4.45,8.13l-8.8,2a9.06,9.06,0,0,0-9.22-7.44,10,10,0,0,0-7.95,3.46q-3.06,3.48-3.11,11.34c0,5.56.93,9.52,2.92,11.89a9.71,9.71,0,0,0,7.77,3.59,8.9,8.9,0,0,0,6.1-2.21c1.71-1.49,2.94-3.84,3.71-7.05Zm70.37,16.6.28-43.95,32.58.2,0,7.44-23.71-.15-.06,9.75,22.06.14-.05,7.39-22.06-.13-.08,12,24.55.15,0,7.41-33.43-.21Zm95.09.6.28-43.95,13.28.08,7.78,30,8.07-29.93,13.31.08-.27,44-8.24-.05.22-34.6-9,34.55-8.54-.06-8.48-34.65-.22,34.6-8.24-.05Zm105.53.66.27-43.95,32.58.2,0,7.44-23.71-.14-.06,9.74,22.06.14,0,7.39-22.06-.13-.08,12,24.55.15,0,7.41L537,178.14Zm95.29.6.27-44,8.64.05L659,164.3l.19-29.34,8.25,0-.28,44-8.91-.06-17.54-28.77-.18,28.66-8.24,0Zm108.4.68.23-36.51-13-.08,0-7.44,34.92.22,0,7.44-13-.09-.23,36.52-8.88-.06Z"/><path class="cls-4" d="M326.6,43.29l.12-20.2-56.91-.36c-9.16-.06-20.47,1.05-27.94,6.86-7,5.47-9.26,13.92-9.31,22.49-.05,8.12,2,16,8.62,21.27,7.07,5.55,17.71,6.75,26.42,6.81l24.75.15c3,0,7.8.29,10.27,2.06,2,1.44,2.44,4,2.42,6.3s-.58,4.63-2.73,6c-2.81,1.77-8.17,2-11.48,2l-54.55-.34-.12,20.2,57.85.36c9.12.06,20.3-1.06,27.77-6.77,7-5.33,9.29-13.49,9.34-22,.05-7.78-1.6-16-7.93-21.22-6.65-5.41-17.49-6.44-25.77-6.49l-27.73-.17c-2.77,0-6.35-.39-8.61-2.08a6.53,6.53,0,0,1-2.45-5.67c0-2.78.69-5.48,3.08-7.17,2.85-2,7.59-2.37,11-2.35l53.86.34Zm91.13,74.32,28,.17L401.87,23.56,377,23.4l-44.72,93.67,26.93.17,9-21.3,40.5.25,9,21.42ZM388.5,48.73l11.69,27.21-23.3-.15L388.5,48.73Zm150.56-4.67.13-19.64L492,24.13c-13-.09-27.32,2.28-37,11.73s-12.27,23.55-12.35,36.52c-.05,7.44.92,15.08,3.88,22a35.91,35.91,0,0,0,12.08,15.26A40.34,40.34,0,0,0,471.76,116c6.12,1.74,13.33,2,19.66,2l47.17.3L539,60.93l-44.1-.28-.13,20.08,18.42.11L513,97.78l-21.49-.14c-5.88,0-12.39-1.23-16.38-6-4.28-5.09-5-13.55-5-20,.05-6.9.93-16.07,5.36-21.63,4-5,10.27-6.34,16.36-6.31l47.17.3ZM631.94,119l28,.18L616.07,24.9l-24.86-.15-44.72,93.67,26.93.17,9-21.31,40.51.26,9,21.41ZM602.71,50.08l11.69,27.2-23.3-.14,11.61-27.06Zm66.5-24.84-.59,93.94,25.13.16L694,84l21.39.14,21.75,35.43,28.64.18-25-38.23L744,80.21A24.12,24.12,0,0,0,753.85,73c4.16-5.19,5.71-11.55,5.75-18.11.06-8.48-2.15-16.73-9.06-22.18-7.39-5.82-18.56-7.08-27.68-7.13l-53.65-.34Zm25,20.36,23.57.14c3.73,0,10.37.28,13.48,2.29,2.4,1.55,3,4.29,2.94,6.95s-.67,5.44-3.14,7c-3.18,2-9.64,2.18-13.39,2.15L694.09,64l.12-18.37Z"/></g></g></svg>